<?xml version="1.0" encoding="UTF-8"?>
<svg id="a" data-name="Livello 1" xmlns="http://www.w3.org/2000/svg" width="1080" height="1080" viewBox="0 0 1080 1080">
  <path d="m540.256.259C242.27.259,0,242.017,0,540s242.27,539.741,540.256,539.741,539.744-241.761,539.744-539.741S838.242.259,540.256.259Zm368.514,574.348c-2.558,2.555-5.615,4.598-8.685,6.645-30.16,21.466-62.867,38.846-96.608,53.155-38.833,16.356-78.714,28.623-120.105,37.314-19.429,3.575-39.357,6.642-59.285,9.708-11.256,1.535-23.01,2.046-34.253,3.07-2.046,0-3.581,1.02-5.628,1.532h-72.063c-2.046-.512-3.581-1.532-5.615-1.532-20.452-.512-40.892-3.578-60.833-6.136-29.125-4.598-57.239-10.731-85.353-19.42-75.645-22.489-145.15-57.757-208.029-105.802-12.778-9.711-25.556-20.958-38.334-31.181-1.535-1.532-3.057-3.067-4.08-5.11-1.535-2.555-1.535-5.622.512-8.177,1.535-2.558,4.592-3.578,7.662-2.558,2.558.512,5.116,1.535,7.15,3.067,21.475,12.269,43.45,23.513,66.448,33.736,46.52,21.466,94.562,38.846,144.651,51.623,24.533,5.622,48.554,11.755,73.598,15.333,22.998,3.578,46.008,6.133,69.006,9.2,32.706,3.578,65.425,3.578,98.131,3.067,33.729,0,67.471-3.067,101.2-8.177,59.285-8.18,117.048-23.001,173.276-43.447,12.778-4.598,25.556-9.711,37.822-14.31,4.08-2.046,7.662-3.067,11.755-2.558,5.615.512,9.197,3.07,11.243,8.18,2.046,5.11,0,9.711-3.581,12.778Zm35.776,60.823c-3.569,4.598-8.173,8.177-12.266,11.755-2.046,1.535-4.592,2.555-7.15,3.067-3.581.512-5.628-2.043-5.116-5.622.512-2.043,1.535-4.09,2.046-6.645,6.139-16.356,12.778-32.712,18.406-49.577,3.569-10.735,5.615-22.489,8.173-34.247,1.023-4.598.512-9.711,0-14.31-.512-6.645-4.605-11.246-10.731-12.778-6.139-2.046-12.266-3.578-18.406-4.09-6.127-.512-12.266,0-18.393,0-21.463-.512-42.938,1.535-63.89,4.601-2.046,0-4.605.508-6.651,0-4.592,0-6.127-3.578-4.08-7.668,1.023-2.043,3.569-4.09,5.615-5.622,10.731-7.668,22.486-12.778,35.264-16.868,33.742-10.223,67.471-12.266,102.224-4.598,4.093.508,8.698,2.555,12.778,4.087,4.605,1.535,6.651,5.113,7.674,9.711.512,4.601.512,9.2.512,13.801-1.023,24.021-7.163,47.022-16.871,69-7.15,16.868-16.871,32.712-29.137,46.002Z" fill="#fff"/>
</svg>