<?xml version="1.0" encoding="UTF-8"?>
<svg id="a" data-name="Livello 1" xmlns="http://www.w3.org/2000/svg" width="1080" height="1080" viewBox="0 0 1080 1080">
  <path d="m540.019.147C241.847.147.147,241.847.147,540.019s241.7,539.834,539.872,539.834,539.834-241.7,539.834-539.834S838.153.147,540.019.147Zm310.993,732.742c-.743,86.402-71.461,140.614-156.494,121.213-36.611-8.331-63.99-39.036-69.388-77.875-5.046-36.18,14.394-75.959,50.104-90.978,27.771-11.734,58.045-17.953,87.654-24.837,39.466-9.153,43.885-13.69,43.885-54.994,0-79.244,0-158.45-.039-237.694,0-30.352-5.319-35.046-34.224-29.296-95.985,19.127-191.97,38.409-287.916,57.849-16.819,3.403-28.944,18.228-28.983,35.398-.039,122.739.157,245.477-.235,368.216-.039,16.78-1.056,33.99-4.85,50.222-12.164,52.06-53.272,81.317-118.123,86.089-51.317,3.755-92.152-24.759-101.656-70.991-9.896-48.149,15.254-91.487,64.694-107.523,25.189-8.214,51.512-12.986,77.484-18.775,30.782-6.845,37.783-14.746,37.823-46.428.117-138.971.039-277.942.039-416.913,0-44.316,5.906-51.591,48.618-60.196,111.944-22.607,223.887-45.215,335.83-67.783,6.375-1.291,12.751-2.347,19.204-3.286,26.167-3.676,36.219,4.654,36.258,31.369.235,95.476.117,190.953.117,286.39h.391c0,90.274.587,180.549-.195,270.823Z" fill="#fff"/>
</svg>