<?xml version="1.0" encoding="UTF-8"?>
<svg id="a" data-name="Livello 1" xmlns="http://www.w3.org/2000/svg" width="1080" height="1080" viewBox="0 0 1080 1080">
  <path d="m0,508.207c2.763-20.477,4.631-41.122,8.43-61.405,30.243-161.446,115.897-285.241,255.699-370.722C353.632,21.354,451.944-3.005,556.708.295c26.586.837,53.123,4.922,79.549,8.501,17.003,2.303,27.907,13.372,30.276,28.003,2.578,15.921-4.037,27.728-21.017,37.517-34.418,19.841-47.187,55.355-31.549,88.61,7.484,15.915,19.681,27.082,36.037,33.738,27.078,11.02,32.628,21.133,27.452,49.543-16.844,92.453,64.789,173.486,157.086,155.931,26.31-5.004,37.776,1.299,47.674,25.728,10.557,26.056,29.663,41.878,57.865,43.985,28.659,2.141,50.092-10.817,64.22-35.743,13.422-23.68,34.947-31.076,52.58-16.249,6.65,5.592,12.204,15.152,13.772,23.724,19.701,107.695,8.548,212.421-36.233,312.323-65.908,147.033-176.31,246.204-328.882,297.922-40.041,13.573-81.432,21.421-123.696,24.29-3.436.233-6.82,1.237-10.228,1.883h-63.278c-2.705-.604-5.385-1.568-8.119-1.761-84.457-5.976-163.447-30.142-235.589-74.282C124.611,918.285,38.729,794.538,8.424,632.857c-3.798-20.265-5.663-40.892-8.424-61.352,0-21.099,0-42.199,0-63.298Zm1011.13,14.639c-2.243.744-3.585.991-4.737,1.599-61.927,32.7-137.966,10.885-174.704-47.769-1.696-2.708-6.572-4.507-10.117-4.779-13.274-1.021-26.736-.238-39.904-1.903-100.73-12.739-179.614-106.632-173.672-206.789.524-8.832-1.666-13.699-9.178-18.599-44.709-29.166-67.371-85.053-55.512-136.873,3.006-13.135,8.281-25.75,12.495-38.546-120.333-10.63-310.688,46.488-419.833,226.015-108.671,178.749-86.421,406.555,54.479,562.373,139.165,153.899,362.092,198.763,551.589,109.136,192.694-91.14,278.746-284.794,269.094-443.865Z" fill="#fff"/>
  <path d="m472.392,270.292c-.374,37.138-31.605,67.673-68.445,66.918-36.801-.754-66.744-31.4-66.376-67.934.374-37.138,31.605-67.672,68.445-66.918,36.801.754,66.744,31.399,66.376,67.934Z" fill="#fff"/>
  <path d="m337.398,539.829c.021,37.042-30.968,67.825-67.91,67.459-36.712-.364-66.891-30.765-66.911-67.405-.02-37.043,30.968-67.824,67.91-67.459,36.712.364,66.891,30.765,66.911,67.405Z" fill="#fff"/>
  <path d="m607.434,742.496c37.027-.029,67.806,30.965,67.449,67.92-.355,36.723-30.741,66.914-67.373,66.943-37.027.029-67.806-30.965-67.449-67.92.355-36.723,30.741-66.915,67.373-66.943Z" fill="#fff"/>
  <path d="m573.265,607.295c-18.345-.246-33.317-15.517-33.21-33.876.109-18.768,15.896-34.02,34.655-33.479,18.327.528,33.07,16.044,32.684,34.397-.385,18.342-15.775,33.203-34.129,32.957Z" fill="#fff"/>
  <path d="m877.381,709.114c-.248,18.351-15.516,33.326-33.869,33.217-18.762-.111-34.007-15.904-33.464-34.669.53-18.333,16.042-33.079,34.389-32.691,18.337.388,33.192,15.783,32.944,34.142Z" fill="#fff"/>
  <path d="m371.429,742.489c18.353.106,33.437,15.253,33.473,33.613.038,18.775-15.623,34.142-34.392,33.747-18.337-.386-33.193-15.779-32.947-34.139.246-18.351,15.512-33.327,33.865-33.221Z" fill="#fff"/>
</svg>