<?xml version="1.0" encoding="UTF-8"?>
<svg id="a" xmlns="http://www.w3.org/2000/svg" width="1080" height="1080" viewBox="0 0 1080 1080">
  <path d="m540,.01C241.769.01,0,241.758,0,539.99s241.769,540,540,540,540-241.769,540-540S838.231.01,540,.01Zm-195.249,756.305h-149.92v-85.143h149.92v85.143Zm180,0h-149.92v-85.143h149.92v85.143Zm0-118.461h-149.92v-85.143h149.92v85.143Zm0-123.997h-149.92v-85.143h149.92v85.143Zm180,242.458h-149.92v-85.143h149.92v85.143Zm0-118.461h-149.92v-85.143h149.92v85.143Zm180,118.461h-149.92v-85.143h149.92v85.143Zm0-118.461h-149.92v-85.143h149.92v85.143Zm0-123.997h-149.92v-85.143h149.92v85.143Zm0-120.32h-149.92v-85.143h149.92v85.143Z" fill="#fff"/>
</svg>