<?xml version="1.0" encoding="UTF-8"?>
<svg id="a" data-name="Livello 1" xmlns="http://www.w3.org/2000/svg" width="1080" height="1080" viewBox="0 0 1080 1080">
  <path d="m540.281.191C242.245.191.194,241.693.194,539.725s242.051,540.084,540.087,540.084,539.524-242.051,539.524-540.084S838.311.191,540.281.191Zm337.546,679.494c-1.648,36.227-7.135,60.923-15.37,82.879-8.777,22.502-20.301,41.165-39.517,59.828-18.659,19.209-37.868,30.736-59.824,39.517-21.956,8.234-46.652,14.271-82.879,15.916-36.227,1.648-47.751,1.648-139.956,1.648s-103.743,0-139.963-1.648c-36.227-1.645-60.93-7.682-82.879-15.916-21.956-8.78-41.165-20.308-59.831-39.517-19.202-18.663-30.733-37.326-39.517-59.828-8.228-21.956-14.271-46.652-15.919-82.879-1.641-36.224-1.641-47.751-1.641-139.96s0-103.736,1.641-139.96c1.648-36.227,7.692-60.923,15.919-82.33,8.784-22.505,20.314-41.714,39.517-60.377,18.666-19.209,37.875-30.736,59.831-39.517,21.949-8.234,46.652-13.722,82.879-15.37,36.22-1.645,47.751-2.194,139.963-2.194s103.729.549,139.956,2.194c36.227,1.648,60.923,7.135,82.879,15.37,21.956,8.78,41.165,20.308,59.824,39.517,19.216,18.663,30.74,37.872,39.517,60.377,8.234,21.406,13.722,46.103,15.37,82.33,1.648,36.224,2.198,47.751,2.198,139.96s-.549,103.736-2.198,139.96Z" fill="#fff"/>
  <path d="m796.091,412.833c-1.518-30.453-6.599-47.203-10.663-58.372-6.084-14.718-12.689-25.378-23.854-36.035-10.657-11.168-21.314-17.767-36.035-23.857-11.165-4.058-27.411-9.136-58.365-10.657-32.999-1.524-43.148-2.032-126.892-2.032s-93.905.508-126.892,2.032c-30.967,1.521-47.207,6.599-58.378,10.657-14.715,6.091-25.378,12.689-36.035,23.857-11.165,10.657-18.272,21.317-23.854,36.035-4.065,11.168-9.133,27.919-10.657,58.372-1.524,32.993-2.032,43.142-2.032,126.892,0,84.255.508,93.899,2.032,126.892,1.524,30.961,6.592,47.711,10.657,58.372,5.583,14.718,12.689,25.378,23.854,36.543,10.657,10.66,21.32,17.764,36.035,23.349,11.171,4.058,27.411,9.136,58.378,10.657,32.987,1.524,43.136,2.032,126.892,2.032s93.893-.508,126.892-2.032c30.955-1.521,47.2-6.599,58.365-10.657,14.721-5.586,25.378-12.689,36.035-23.349,11.165-11.165,17.77-21.825,23.854-36.543,4.065-10.66,9.145-27.411,10.663-58.372,1.524-32.993,2.026-42.637,2.026-126.892,0-83.75-.502-93.899-2.026-126.892Zm-255.81,288.298c-89.332,0-161.409-72.074-161.409-161.406,0-88.824,72.077-161.406,161.409-161.406s161.403,72.582,161.403,161.406c0,89.332-72.071,161.406-161.403,161.406Zm168.002-291.343c-21.32,0-38.068-16.751-38.068-37.56s16.748-38.068,38.068-38.068c20.812,0,37.56,17.256,37.56,38.068s-16.748,37.56-37.56,37.56Z" fill="#fff"/>
  <path d="m621.488,539.774c0,44.942-36.271,81.605-81.208,81.605s-81.213-36.663-81.213-81.605,36.266-81.21,81.213-81.21,81.208,36.268,81.208,81.21Z" fill="#fff"/>
</svg>