<?xml version="1.0" encoding="UTF-8"?>
<svg id="a" data-name="Livello 1" xmlns="http://www.w3.org/2000/svg" width="1080" height="32.108" viewBox="0 0 1080 32.108">
  <path d="m1074.067,31.233c-2.474-.316-5.204-.651-7.93-1.016-16.352-2.191-32.685-4.542-49.061-6.538-15.243-1.858-30.515-3.508-45.804-4.94-13.922-1.304-27.873-2.366-41.83-3.221-21.282-1.303-42.575-2.468-63.875-3.438-14.199-.647-28.419-.869-42.63-1.255-46.775-1.27-93.555-1.018-140.33-.241-33.241.552-66.48,1.432-99.711,2.438-32.544.986-65.076,2.352-97.615,3.485-19.478.678-38.962,1.203-58.441,1.846-20.854.688-41.705,1.445-62.559,2.147-18.791.633-37.584,1.228-56.376,1.845-23.604.775-47.208,1.567-70.812,2.332-19.938.646-39.878,1.248-59.816,1.897-21.542.701-43.082,1.437-64.623,2.154-18.104.603-36.208,1.21-54.313,1.798-16.042.521-32.085,1.025-48.128,1.515-2.06.063-4.135.129-6.184-.042C1.564,31.793.02,29.852,0,27.283c-.02-2.564,1.414-4.575,3.827-4.957,2.029-.321,4.105-.404,6.164-.472,23.833-.787,47.668-1.526,71.5-2.326,34.832-1.169,69.663-2.388,104.495-3.563,17.416-.588,34.834-1.112,52.251-1.691,27.499-.914,54.998-1.839,82.496-2.782,22.457-.77,44.913-1.586,67.37-2.357,18.333-.63,36.667-1.217,55-1.835,22.229-.749,44.455-1.583,66.686-2.249,27.503-.825,55.014-1.393,82.515-2.291C654.194.74,716.094-.182,778.014.03c31.419.108,62.83.721,94.215,2.081,23.592,1.023,47.18,2.355,70.729,4.105,26.058,1.937,52.097,4.232,78.014,7.67,17.265,2.29,34.517,4.678,51.775,7.018.909.123,1.835.151,2.73.333,3.201.652,4.839,2.519,4.473,5.023-.446,3.047-2.543,4.899-5.883,4.972Z" fill="#fff"/>
</svg>