<?xml version="1.0" encoding="UTF-8"?>
<svg id="a" data-name="Livello 1" xmlns="http://www.w3.org/2000/svg" width="957.318" height="1080" viewBox="0 0 957.318 1080">
  <path d="m298.383,599.42c-1.247-7.385-2.762-14.184-3.463-21.067-.854-8.397-1.565-16.874-1.4-25.298.903-45.938-5.59-91.309-10.299-136.804-4.566-44.115-9.274-88.225-14.805-132.225-3.684-29.306-8.413-58.508-13.596-87.592-6.418-36.019-13.731-71.879-20.832-107.773-.768-3.88-2.692-7.531-5.009-13.804-3.692,5.351-6.726,8.202-7.894,11.68-12.541,37.345-25.932,74.457-36.891,112.27-28.248,97.468-48.827,196.644-63.59,297.053-7.678,52.22-16.461,104.278-24.065,156.508-3.038,20.87-4.291,42.004-6.257,63.027-.59,6.308-.637,12.669-1.301,18.966-.859,8.157-4.624,14.737-11.861,18.928-8.114,4.699-16.443,8.04-26.522,2.35-3.342-7.005-1.859-14.797-1.204-22.311,5.628-64.565,15.383-128.585,25.701-192.53,16.495-102.22,41.849-202.579,63.773-303.658,7.309-33.697,14.862-67.348,22.916-100.872,3.107-12.932,7.482-25.613,12.048-38.128,7.717-21.15,15.924-42.126,24.191-63.07,2.567-6.504,5.331-13.108,9.167-18.897C215.817,3.16,228.524-1.46,243.828.392c6.279.76,10.474,3.96,12.006,10.124,1.186,4.772,2.055,9.627,2.936,14.468,4.029,22.143,8.39,44.234,11.935,66.454,7.76,48.639,15.434,97.296,22.496,146.04,5.147,35.524,9.547,71.164,13.751,106.815,4.121,34.949,7.68,69.965,11.278,104.973,2.087,20.309,3.592,40.679,5.739,60.981.626,5.925.248,12.431,4.404,17.196,6.384-.131,7.221-4.952,8.706-8.554,8.043-19.513,16.327-38.951,23.567-58.767,29.979-82.049,53.629-166.038,75.921-250.427,7.189-27.216,14.02-54.526,21.241-81.733,2.705-10.193,5.825-20.293,9.168-30.297,3.666-10.972,10.677-19.758,19.381-27.205,11.396-9.749,24.521-6.817,30.546,7.201,2.189,5.094,3.479,10.763,4.139,16.294,4.418,37.039,8.92,74.074,12.673,111.183,3.324,32.866,5.716,65.825,8.709,100.975,4.387-2.885,7.34-4.386,9.77-6.491,40.55-35.137,84.376-65.748,129.995-93.833,8.345-5.137,17.469-9.062,26.415-13.153,6.643-3.039,13.753-2.963,20.683-.935,12.41,3.631,17.767,15.156,11.961,26.602-2.154,4.246-5.474,8.298-9.2,11.257-6.031,4.789-12.509,9.249-19.372,12.713-25.95,13.099-48.913,30.565-71.775,48.194-32.935,25.397-64.675,52.148-92.821,82.917,0,10.62-.267,21.099.054,31.559.715,23.219,2.387,46.427,2.49,69.644.329,73.952.286,147.906-.028,221.858-.059,14.009-1.034,28.174-3.33,41.976-3.407,20.483-12.712,24.828-34.039,16.689-.358-4.222-1.228-8.985-1.092-13.718,1.868-65.455,4.317-130.896,5.678-196.36.805-38.713-.027-77.461-.228-116.193-.017-3.212-.833-6.42-1.304-9.824-7.257,1.06-8.349,6.573-10.649,10.437-24.03,40.378-39.339,84.02-47.627,130.154-10.941,60.898-4.591,120.653,13.02,179.459,6.689,22.336,16.332,43.447,29.618,62.786,13.864,20.182,31.599,35.709,53.705,46.384,41.549,20.062,85.613,27.473,131.293,25.45,25.315-1.121,50.415-4.726,75.098-11.006,26.046-6.628,51.271-15.279,74.577-28.802,27.393-15.896,54.469-32.341,81.91-48.153,7.847-4.521,16.2-8.618,24.833-11.198,9.702-2.899,16.968,4.175,14.908,14.183-1.077,5.228-3.626,10.946-7.283,14.729-38.499,39.822-81.361,73.95-132.86,95.478-26.107,10.913-54.224,14.993-82.23,18.134-37.176,4.17-74.424,5.192-111.705.521-21.734-2.723-43.039-7.129-63.652-14.537-25.731-9.248-47.313-24.263-64.887-45.477-35.306-42.618-58.307-91.072-70.279-144.894-13.069-58.755-11.591-117.413,1.83-175.917,2.518-10.975,5.13-21.929,7.697-32.893,12.062-51.525,35.892-97.526,65.989-140.585,3.227-4.617,6.306-9.355,9.796-13.767,4.186-5.291,5.467-11.097,5.064-17.744-2.934-48.493-5.655-96.999-8.594-145.491-.339-5.593-1.249-11.211-2.532-16.668-1.121-4.77-8.363-6.823-12.187-3.425-3.092,2.748-6.347,5.905-7.99,9.57-3.432,7.654-6.407,15.614-8.585,23.713-11.697,43.489-22.756,87.152-34.733,130.562-5.982,21.682-12.484,43.32-20.442,64.338-19.185,50.67-39.274,101-59.196,151.389-6.506,16.457-15.105,31.81-26.95,45.113-9.382,10.537-20.739,13.214-34.856,8.561Z" fill="#fff"/>
  <path d="m558.558,983.799c56.071-.77,110.762,8.659,164.25,24.619,36.358,10.848,72.114,23.717,108.113,35.758,3.992,1.336,8.008,2.827,11.675,4.857,7.288,4.035,11.111,10.53,11.819,18.812.524,6.122-4.185,11.57-10.134,10.632-6.165-.973-12.285-2.827-18.146-5.037-41.501-15.645-83.738-28.809-126.844-39.326-62.687-15.295-126.003-22.833-190.472-16.135-44.778,4.653-89.519,9.719-134.21,15.146-39.109,4.749-78.119,10.3-117.183,15.418-48.833,6.398-97.671,12.757-146.517,19.054-31.403,4.048-62.834,7.888-94.23,11.993-5.164.675-10.318,1.139-13.105-3.935-3.862-7.03-5.276-14.747-.763-22.057,1.299-2.104,4.348-3.783,6.886-4.348,8.919-1.986,17.911-3.833,26.972-4.962,45.381-5.654,90.812-10.912,136.187-16.608,38.392-4.819,76.727-10.095,115.099-15.084,50.233-6.531,100.421-13.456,150.734-19.299,34.234-3.976,68.644-6.455,102.991-9.431,5.586-.484,11.25-.068,16.878-.068Z" fill="#fff"/>
</svg>