<?xml version="1.0" encoding="UTF-8"?>
<svg id="a" data-name="Livello 1" xmlns="http://www.w3.org/2000/svg" width="1080" height="1080" viewBox="0 0 1080 1080">
  <path d="m540.273.193C242.24.193.193,241.691.193,540.273s242.048,539.534,540.08,539.534,539.534-241.501,539.534-539.534S838.306.193,540.273.193Zm247.538,778.835c-9.879,15.919-30.736,20.857-46.106,10.978-126.787-77.388-286.505-94.952-474.216-52.143-18.113,4.392-36.227-7.132-40.619-25.246-3.839-18.113,7.135-36.227,25.249-40.066,205.824-47.205,382.011-26.897,524.714,59.824,15.37,9.879,20.857,30.736,10.978,46.652Zm65.864-147.095c-12.077,19.762-37.872,25.798-57.63,13.722-145.45-88.916-366.644-114.711-537.889-62.568-22.502,6.586-46.103-6.04-52.689-28.542-6.586-21.956,6.037-45.557,27.993-52.143,195.941-59.824,439.637-30.736,606.494,71.352,19.758,12.626,25.795,38.421,13.722,58.179Zm6.037-153.132c-173.989-103.187-461.047-113.066-627.351-62.571-26.894,8.234-54.886-6.586-63.121-33.48-8.231-26.894,7.135-54.886,34.029-63.121,190.458-57.63,507.699-46.652,708.036,72.45,23.601,14.271,31.835,45.007,17.564,69.157-14.271,24.15-45.557,31.835-69.157,17.564Z" fill="#fff"/>
</svg>