<?xml version="1.0" encoding="UTF-8"?>
<svg id="a" data-name="Livello 1" xmlns="http://www.w3.org/2000/svg" width="1080" height="1080" viewBox="0 0 1080 1080">
  <polygon points="467.826 432.148 654.987 540.273 467.826 647.852 467.826 432.148" fill="#fff"/>
  <path d="m539.727.193C241.694.193.193,241.691.193,540.273s241.501,539.534,539.534,539.534,540.08-241.501,540.08-539.534S837.76.193,539.727.193Zm345.234,712.974c-8.78,31.286-32.93,55.436-63.667,63.667-56.535,15.37-281.567,15.37-281.567,15.37,0,0-225.036,0-281.018-15.37-31.286-8.231-55.436-32.381-63.67-63.667-14.817-55.985-14.817-172.893-14.817-172.893,0,0,0-117.458,14.817-173.44,8.234-30.736,32.384-55.436,63.67-63.67,55.982-14.817,281.018-14.817,281.018-14.817,0,0,225.033,0,281.567,14.817,30.736,8.234,54.886,32.934,63.667,63.67,14.82,55.982,14.82,173.44,14.82,173.44,0,0,0,116.908-14.82,172.893Z" fill="#fff"/>
</svg>